<svg id="Layer_1" data-name="Layer 1" xmlns="http://www.w3.org/2000/svg" viewBox="0 0 2771.85 750"><defs><style>.cls-1{fill:#3280d6;}.cls-2{fill:#172b4f;}</style></defs><path class="cls-1" d="M692.78,346.25a313.45,313.45,0,0,0-9.23-53.12A319.48,319.48,0,0,0,459.17,66.79a310.2,310.2,0,0,0-55.7-9.93c-9.39-.86-18.94-1.33-28.56-1.33s-19.32.47-28.79,1.33a311.24,311.24,0,0,0-53,9.31A318.8,318.8,0,0,0,121.19,181,317.81,317.81,0,0,0,57,346.49c-.86,9.23-1.33,18.7-1.33,28.24s.47,19.09,1.33,28.4a312.07,312.07,0,0,0,9.23,53.12A318.94,318.94,0,0,0,180.73,628.14a317.31,317.31,0,0,0,165.39,64.54c9.47.86,19.09,1.25,28.79,1.25s19.17-.39,28.56-1.25a310.78,310.78,0,0,0,53.12-9.31,319.62,319.62,0,0,0,172-114.85,317.81,317.81,0,0,0,64.23-165.47c.86-9.31,1.26-18.77,1.26-28.32S693.64,355.64,692.78,346.25ZM569,196a263.28,263.28,0,0,1,57,97.17H569ZM293.08,123.67V181H195.59A264.76,264.76,0,0,1,293.08,123.67ZM180.73,553.58a264.06,264.06,0,0,1-57-97.33h57Zm275.86,72.29V568.52h97.56A264,264,0,0,1,456.59,625.87ZM637.47,403.05h-234v55.71h221.8a259.93,259.93,0,0,1-27,56.64H403.47V637.29a264.68,264.68,0,0,1-28.56,1.57,267.83,267.83,0,0,1-28.79-1.57V403.05h-55.7V625a265.35,265.35,0,0,1-56.57-27.07V403.13H112.35a260.61,260.61,0,0,1-1.56-28.4,257.67,257.67,0,0,1,1.56-28.24H346.12V290.78H124.48a263.63,263.63,0,0,1,27-56.64H346.12V112.25a267.83,267.83,0,0,1,28.79-1.57,264.68,264.68,0,0,1,28.56,1.57V346.49h55.7v-222a262.75,262.75,0,0,1,56.72,27.15V346.25h121.5a264.36,264.36,0,0,1,.08,56.8Z"/><path class="cls-2" d="M852.1,324.44c26.89,0,49.12-9.19,66.07-27.35,15.88-17.33,23.93-39.53,23.93-66s-8.06-48.68-24-66c-16.92-18.12-39.14-27.31-66-27.31s-49.12,9.2-66.05,27.36c-15.88,17.32-23.93,39.52-23.93,66s8,48.68,24,66C803,315.25,825.2,324.44,852.1,324.44Zm-38-134.18c9.31-11.09,21.74-16.48,38-16.48s28.7,5.4,38,16.51c9,10.61,13.57,24.34,13.57,40.8s-4.57,30.2-13.59,40.83c-9.31,11.09-21.74,16.49-38,16.49s-28.7-5.4-38-16.52c-9-10.59-13.57-24.32-13.57-40.8s4.57-30.2,13.58-40.81Z"/><path class="cls-2" d="M1000.61,305.9c13.59,12.31,31,18.54,51.76,18.54,27.29,0,49.36-9.22,65.59-27.38,16.09-17.77,24.24-40,24.24-66s-8.15-48.18-24.21-65.93c-16.25-18.2-37.71-27.42-63.77-27.42-21.69,0-39.68,6.37-53.61,18.95V73.17H962.22V321.76h38.39Zm12.24-115.64c9.32-11.09,21.76-16.48,38-16.48s28.81,5.44,38.79,16.61c9.39,10.59,14.15,24.29,14.15,40.7s-4.75,30.11-14.13,40.68c-10,11.19-22.69,16.64-38.81,16.64s-28.7-5.4-38-16.51c-9-10.61-13.57-24.34-13.57-40.81s4.57-30.19,13.58-40.82Z"/><path class="cls-2" d="M1326.28,324.44c21.31,0,39.09-5.18,52.87-15.42a88,88,0,0,0,30-39.93l3.42-8.94h-41.14l-1.83,3.54c-8.73,16.63-22.77,24.72-42.94,24.72-14.76,0-27-4.59-36.47-13.65a53.52,53.52,0,0,1-15.25-27h139.69V231.09c0-26.46-8.06-48.67-24-66-16.92-18.12-39.14-27.31-66-27.31s-49.12,9.2-66.06,27.36c-15.88,17.32-23.93,39.52-23.93,66,0,26.29,8.42,48.52,25,66.07C1276.76,315.27,1299.18,324.44,1326.28,324.44Zm-50.74-113.39a51.39,51.39,0,0,1,14.51-24.55c9.24-8.44,20.86-12.72,34.55-12.72s25.32,4.28,34.52,12.69a51.56,51.56,0,0,1,14.55,24.58Z"/><path class="cls-2" d="M1499,178.25h0c6.63-3,15-4.47,24.72-4.47a41,41,0,0,1,24.71,7.81,46.22,46.22,0,0,1,15.91,20.64l1.64,4.17h40.68l-2.66-8.54a83.68,83.68,0,0,0-30.7-43.42c-15.42-11.08-33.92-16.7-55-16.7-26.47,0-48.35,9.2-65,27.36-16.1,17.54-24.27,39.74-24.27,66s8.17,48.46,24.27,66c16.7,18.15,38.58,27.35,65,27.35,21,0,39.56-5.62,55-16.75A83.54,83.54,0,0,0,1604,264.33l2.66-8.55H1566l-1.63,4.16a46.23,46.23,0,0,1-15.92,20.65,41,41,0,0,1-24.71,7.82c-17.69,0-31.65-5.61-41.53-16.68-9.81-10.8-14.77-24.47-14.77-40.64s5-29.85,14.82-40.7A48.79,48.79,0,0,1,1499,178.25Z"/><rect class="cls-2" x="772.54" y="454.91" width="38.4" height="181.33"/><path class="cls-2" d="M956.73,457.38c-8.81-3.43-19.34-5.16-31.31-5.16a61,61,0,0,0-33.49,9.45,93.75,93.75,0,0,0-12,9.17V454.91h-38.4V636.23h38.4V532.79c0-13.3,4.18-23.85,12.76-32.23,8.55-8.17,19.12-12.3,31.43-12.3,12.13,0,21.68,3.84,29.2,11.74s11.3,18.8,11.3,32.46V636.23H1003V531.78c0-24.14-7.65-43.92-22.7-58.72A65.52,65.52,0,0,0,956.73,457.38Z"/><path class="cls-2" d="M1233.27,452.22H1225c-11.47,0-21.47,2-29.7,6a73.7,73.7,0,0,0-25.59,19V454.91h-38.39V636.23h38.39V555.66c0-17.7,5-33.08,14.74-45.71,10.21-13,23-19.34,39.21-19.34h9.61Z"/><path class="cls-2" d="M1329.59,452.22c-26.89,0-49.11,9.19-66.06,27.36-15.88,17.32-23.93,39.53-23.93,66s8.06,48.68,24,66c16.92,18.13,39.14,27.31,66,27.31s49.12-9.2,66.06-27.36c15.88-17.32,23.93-39.52,23.93-66s-8-48.68-24-66C1378.69,461.41,1356.48,452.22,1329.59,452.22Zm38,134.17h0c-9.31,11.09-21.74,16.48-38,16.48s-28.7-5.39-38-16.51c-9-10.6-13.56-24.33-13.56-40.8s4.57-30.2,13.59-40.83c9.31-11.09,21.74-16.48,38-16.48s28.69,5.39,38,16.51c9,10.61,13.57,24.33,13.57,40.8S1376.62,575.77,1367.61,586.39Z"/><path class="cls-2" d="M1549.73,536.64a145.41,145.41,0,0,0-28.36-8.46c-9.62-1.88-18.57-3.94-26.62-6.12a69.35,69.35,0,0,1-18.88-7.78c-3.58-2.27-5.18-5.27-5.18-9.74,0-4.82,0-17.63,32.26-17.63,29.62,0,34.55,11.69,35.67,20.49l.75,5.75h38.73l-.84-7.34c-1.76-15.34-8.31-27.87-19.48-37.28-13.06-10.82-30.88-16.31-53-16.31-23.11,0-41,4.69-53.24,13.95-12.78,9.67-19.25,23.37-19.25,40.72,0,12,3.37,21.68,10,28.73a64.54,64.54,0,0,0,23,15.38,154,154,0,0,0,28.29,8.27c9.58,1.87,18.5,4,26.53,6.26a65.87,65.87,0,0,1,18.81,8.2c3.64,2.46,5.34,5.8,5.34,10.52,0,7.5-3.8,12.5-11.91,15.7a58.39,58.39,0,0,1-13,3.33c-12,1.64-21.94,1.17-30.29-1.4-13.56-4.58-20.48-12.74-21.79-25.7l-.61-5.92h-39.15l.4,7c1,17.76,8.36,32.36,21.82,43.32,14.39,12.2,33.81,18.38,57.73,18.38,22.37,0,40.5-4.75,53.89-14.13,14.14-9.9,21.31-24.33,21.31-42.9,0-12.17-3.35-22-10-29.31A64.21,64.21,0,0,0,1549.73,536.64Z"/><path class="cls-2" d="M1693.81,452.22c-21.79,0-39.78,6.26-53.62,18.65v-16H1601.8V702.82h38.39V620.07c13.71,12.52,31.14,18.85,51.94,18.85,27.17,0,49.19-9.22,65.41-27.39,16.09-17.75,24.24-39.95,24.24-66s-8.15-48.2-24.21-65.93C1741.32,461.44,1719.87,452.22,1693.81,452.22Zm35.44,134c-10,11.19-22.69,16.62-38.81,16.62-16.27,0-28.69-5.39-38-16.51-9-10.6-13.57-24.32-13.57-40.8s4.57-30.2,13.59-40.83c9.31-11.09,21.75-16.48,38-16.48s28.81,5.43,38.8,16.61c9.39,10.6,14.14,24.29,14.14,40.7S1738.63,575.67,1729.25,586.26Z"/><path class="cls-2" d="M1888.19,452.22c-26.9,0-49.12,9.19-66.06,27.36-15.88,17.32-23.93,39.53-23.93,66,0,26.28,8.41,48.52,25,66.07,17.14,18.11,39.57,27.28,66.67,27.28,21.3,0,39.08-5.19,52.87-15.42a88,88,0,0,0,30-39.93l3.41-8.94H1935l-1.86,3.53c-8.71,16.64-22.75,24.72-42.92,24.72-14.76,0-27-4.59-36.48-13.64a53.43,53.43,0,0,1-15.24-27h139.69V545.57c0-26.46-8.06-48.67-24-66C1937.29,461.41,1915.08,452.22,1888.19,452.22Zm-49.07,73.31a51.3,51.3,0,0,1,14.5-24.53c9.24-8.46,20.87-12.74,34.57-12.74s25.32,4.28,34.52,12.69a51.56,51.56,0,0,1,14.55,24.58Z"/><path class="cls-2" d="M2062.55,492.73c6.63-3,14.95-4.47,24.72-4.47a41,41,0,0,1,24.71,7.81,46.21,46.21,0,0,1,15.92,20.65l1.64,4.16h40.67l-2.66-8.54a83.64,83.64,0,0,0-30.69-43.42c-15.43-11.08-33.92-16.7-55-16.7-26.47,0-48.36,9.2-65.05,27.35-16.11,17.55-24.27,39.75-24.27,66s8.16,48.46,24.27,66c16.69,18.15,38.58,27.35,65.05,27.35,21,0,39.55-5.63,55-16.75a83.52,83.52,0,0,0,30.62-43.36l2.66-8.55h-40.67l-1.64,4.17A46.29,46.29,0,0,1,2112,595.07a41,41,0,0,1-24.71,7.81c-17.68,0-31.64-5.6-41.53-16.67-9.8-10.8-14.77-24.47-14.77-40.64s5-29.85,14.83-40.7A48.75,48.75,0,0,1,2062.55,492.73Z"/><rect class="cls-2" x="2295.58" y="454.91" width="38.4" height="181.33"/><path class="cls-2" d="M2444.09,452.22c-26.89,0-49.11,9.19-66.06,27.36-15.88,17.32-23.93,39.53-23.93,66s8.05,48.68,24,66c16.91,18.13,39.12,27.31,66,27.31s49.11-9.2,66.06-27.36c15.88-17.32,23.93-39.52,23.93-66s-8.06-48.68-24-66C2493.19,461.41,2471,452.22,2444.09,452.22Zm38,134.17h0c-9.31,11.09-21.74,16.48-38,16.48s-28.7-5.39-38-16.51c-9-10.6-13.57-24.33-13.57-40.8s4.57-30.2,13.6-40.83c9.31-11.09,21.74-16.48,38-16.48s28.69,5.39,38,16.51c9,10.6,13.57,24.33,13.57,40.8S2491.11,575.78,2482.11,586.39Z"/><path class="cls-2" d="M2693,473a65.41,65.41,0,0,0-23.52-15.65c-8.8-3.43-19.33-5.16-31.3-5.16a61,61,0,0,0-33.5,9.45,94.67,94.67,0,0,0-12,9.17V454.91H2554.2V636.23h38.39V532.79c0-13.3,4.19-23.85,12.77-32.23,8.54-8.17,19.11-12.3,31.43-12.3,12.13,0,21.68,3.84,29.2,11.74s11.3,18.81,11.3,32.46V636.23h38.39V531.78C2715.68,507.65,2708,487.88,2693,473Z"/><path class="cls-2" d="M1112.17,388.35h45.57a49.75,49.75,0,0,0,49.69-49.7V140.43H1169V343.25a6.17,6.17,0,0,1-6.16,6.17h-50.71Z"/><path class="cls-2" d="M1639.47,272.06a49.75,49.75,0,0,0,49.69,49.7h11.95V282.82H1684a6.16,6.16,0,0,1-6.16-6.16V175.8h38.65V140.43h-38.65V95h-38.4l0,45.42h-22.07V175.8h22.07Z"/><path class="cls-2" d="M1072.14,409.49h-38.39l0,45.42h-22.06v35.37h22.06l0,96.26a49.74,49.74,0,0,0,49.69,49.69h12V597.3H1078.3a6.17,6.17,0,0,1-6.16-6.16V490.28h38.66V454.91h-38.66Z"/><path class="cls-2" d="M2240.89,409.49H2202.5l0,45.42H2180.4v35.37h22.08v96.26a49.75,49.75,0,0,0,49.69,49.69h12V597.3h-17.08a6.16,6.16,0,0,1-6.16-6.16V490.28h38.66V454.91h-38.66Z"/><circle class="cls-2" cx="1188.25" cy="89.62" r="25.2"/><circle class="cls-2" cx="791.74" cy="404.49" r="25.2"/><circle class="cls-2" cx="2314.94" cy="404.49" r="25.2"/></svg>