<svg id="Layer_1" data-name="Layer 1" xmlns="http://www.w3.org/2000/svg" viewBox="0 0 750 750"><defs><style>.cls-1{fill:#3280d6;}</style></defs><path class="cls-1" d="M692.78,346.25a313.45,313.45,0,0,0-9.23-53.12A319.48,319.48,0,0,0,459.17,66.79a310.2,310.2,0,0,0-55.7-9.93c-9.39-.86-18.94-1.33-28.56-1.33s-19.32.47-28.79,1.33a311.24,311.24,0,0,0-53,9.31A318.8,318.8,0,0,0,121.19,181,317.81,317.81,0,0,0,57,346.49c-.86,9.23-1.33,18.7-1.33,28.24s.47,19.09,1.33,28.4a312.07,312.07,0,0,0,9.23,53.12A318.94,318.94,0,0,0,180.73,628.14a317.31,317.31,0,0,0,165.39,64.54c9.47.86,19.09,1.25,28.79,1.25s19.17-.39,28.56-1.25a310.78,310.78,0,0,0,53.12-9.31,319.62,319.62,0,0,0,172-114.85,317.81,317.81,0,0,0,64.23-165.47c.86-9.31,1.26-18.77,1.26-28.32S693.64,355.64,692.78,346.25ZM569,196a263.28,263.28,0,0,1,57,97.17H569ZM293.08,123.67V181H195.59A264.76,264.76,0,0,1,293.08,123.67ZM180.73,553.58a264.06,264.06,0,0,1-57-97.33h57Zm275.86,72.29V568.52h97.56A264,264,0,0,1,456.59,625.87ZM637.47,403.05h-234v55.71h221.8a259.93,259.93,0,0,1-27,56.64H403.47V637.29a264.68,264.68,0,0,1-28.56,1.57,267.83,267.83,0,0,1-28.79-1.57V403.05h-55.7V625a265.35,265.35,0,0,1-56.57-27.07V403.13H112.35a260.61,260.61,0,0,1-1.56-28.4,257.67,257.67,0,0,1,1.56-28.24H346.12V290.78H124.48a263.63,263.63,0,0,1,27-56.64H346.12V112.25a267.83,267.83,0,0,1,28.79-1.57,264.68,264.68,0,0,1,28.56,1.57V346.49h55.7v-222a262.75,262.75,0,0,1,56.72,27.15V346.25h121.5a264.36,264.36,0,0,1,.08,56.8Z"/></svg>