<svg id="Layer_1" data-name="Layer 1" xmlns="http://www.w3.org/2000/svg" xmlns:xlink="http://www.w3.org/1999/xlink" viewBox="0 0 570.43 750"><defs><style>.cls-1{fill:url(#linear-gradient);}</style><linearGradient id="linear-gradient" x1="285.24" y1="688.06" x2="285.24" y2="62.82" gradientUnits="userSpaceOnUse"><stop offset="0" stop-color="#00cdff"/><stop offset="1" stop-color="#2b71d0"/></linearGradient></defs><path class="cls-1" d="M285.24,62.82c-124.58,0-225.56,101-225.56,225.56A225.53,225.53,0,0,0,201.49,497.85V423.16H369v74.69A225.53,225.53,0,0,0,510.8,288.38C510.8,163.8,409.82,62.82,285.24,62.82Zm0,322.52a97,97,0,1,1,97-97A97,97,0,0,1,285.23,385.34ZM201.49,497.85V688.06H369V497.85a226,226,0,0,1-167.5,0Z"/></svg>