<?xml version="1.0" encoding="UTF-8"?>
<svg width="1041.3" height="554.14" version="1.1" viewBox="0 0 1041.3 554.14" xml:space="preserve" xmlns="http://www.w3.org/2000/svg" xmlns:xlink="http://www.w3.org/1999/xlink"><defs><style>.cls-1{fill:#3280d6;}</style><style>.cls-1{fill:url(#linear-gradient);}</style><linearGradient id="linear-gradient" x1="285.24" x2="285.24" y1="688.06" y2="62.82" gradientUnits="userSpaceOnUse"><stop stop-color="#00cdff" offset="0"/><stop stop-color="#2b71d0" offset="1"/></linearGradient><linearGradient id="linearGradient354" x1="285.24" x2="285.24" y1="688.06" y2="62.82" gradientTransform="matrix(.18806 0 0 .18806 1074.4 583.68)" gradientUnits="userSpaceOnUse" xlink:href="#linear-gradient"/><style>.cls-1{fill:#3280d6;}</style></defs><title>Powered by React</title><g transform="translate(-440 -263)" data-name="Group 24"><g transform="translate(439.99 262.96)" data-name="Group 23"><path transform="translate(-79.34 -172.91)" d="M1040.82,611.12q-1.74,3.75-3.47,7.4-2.7,5.67-5.33,11.12c-.78,1.61-1.56,3.19-2.32,4.77-8.6,17.57-16.63,33.11-23.45,45.89A73.21,73.21,0,0,1,942.44,719l-151.65,1.65h-1.6l-13,.14-11.12.12-34.1.37h-1.38l-17.36.19h-.53l-107,1.16-95.51,1-11.11.12-69,.75H429l-44.75.48h-.48l-141.5,1.53-42.33.46a87.991,87.991,0,0,1-10.79-.54h0c-1.22-.14-2.44-.3-3.65-.49a87.38,87.38,0,0,1-51.29-27.54C116,678.37,102.75,655,93.85,629.64q-1.93-5.49-3.6-11.12C59.44,514.37,97,380,164.6,290.08q4.25-5.64,8.64-11l.07-.08c20.79-25.52,44.1-46.84,68.93-62,44-26.91,92.75-34.49,140.7-11.9,40.57,19.12,78.45,28.11,115.17,30.55,3.71.24,7.42.42,11.11.53,84.23,2.65,163.17-27.7,255.87-47.29,3.69-.78,7.39-1.55,11.12-2.28,66.13-13.16,139.49-20.1,226.73-5.51a189.089,189.089,0,0,1,26.76,6.4q5.77,1.86,11.12,4c41.64,16.94,64.35,48.24,74,87.46q1.37,5.46,2.37,11.11C1134.3,384.41,1084.19,518.23,1040.82,611.12Z" fill="#f2f2f2" data-name="Path 299"/><path transform="translate(-79.34 -172.91)" d="M576.36,618.52a95.21,95.21,0,0,1-1.87,11.12h93.7V618.52Zm-78.25,62.81,11.11-.09V653.77c-3.81-.17-7.52-.34-11.11-.52ZM265.19,618.52v11.12h198.5V618.52ZM1114.87,279h-74V191.51q-5.35-2.17-11.12-4V279H776.21V186.58c-3.73.73-7.43,1.5-11.12,2.28V279H509.22V236.15c-3.69-.11-7.4-.29-11.11-.53V279H242.24V217c-24.83,15.16-48.14,36.48-68.93,62h-.07v.08q-4.4,5.4-8.64,11h8.64V618.52h-83q1.66,5.63,3.6,11.12h79.39v93.62a87,87,0,0,0,12.2,2.79c1.21.19,2.43.35,3.65.49h0a87.991,87.991,0,0,0,10.79.54l42.33-.46v-97H498.11v94.21l11.11-.12V629.64H765.09V721l11.12-.12V629.64H1029.7v4.77c.76-1.58,1.54-3.16,2.32-4.77q2.63-5.45,5.33-11.12,1.73-3.64,3.47-7.4v-321h76.42Q1116.23,284.43,1114.87,279ZM242.24,618.52V290.08H498.11V618.52Zm267,0V290.08H765.09V618.52Zm520.48,0H776.21V290.08H1029.7Z" opacity=".1" data-name="Path 300"/><path d="M863.09,533.65v13l-151.92,1.4-1.62.03-57.74.53-1.38.02-17.55.15h-.52l-106.98.99L349.77,551.4h-.15l-44.65.42-.48.01-198.4,1.82v-15l46.65-28,93.6-.78,2-.01.66-.01,2-.03,44.94-.37,2.01-.01.64-.01,2-.01L315,509.3l.38-.01,35.55-.3h.29l277.4-2.34,6.79-.05h.68l5.18-.05,37.65-.31,2-.03,1.85-.02h.96l11.71-.09,2.32-.03,3.11-.02,9.75-.09,15.47-.13,2-.02,3.48-.02h.65l74.71-.64Z" fill="#65617d" data-name="Path 301"/><path d="M863.09,533.65v13l-151.92,1.4-1.62.03-57.74.53-1.38.02-17.55.15h-.52l-106.98.99L349.77,551.4h-.15l-44.65.42-.48.01-198.4,1.82v-15l46.65-28,93.6-.78,2-.01.66-.01,2-.03,44.94-.37,2.01-.01.64-.01,2-.01L315,509.3l.38-.01,35.55-.3h.29l277.4-2.34,6.79-.05h.68l5.18-.05,37.65-.31,2-.03,1.85-.02h.96l11.71-.09,2.32-.03,3.11-.02,9.75-.09,15.47-.13,2-.02,3.48-.02h.65l74.71-.64Z" opacity=".2" data-name="Path 302"/><path transform="translate(-79.34 -172.91)" d="M375.44,656.57v24.49a6.13,6.13,0,0,1-3.5,5.54,6,6,0,0,1-2.5.6l-34.9.74a6,6,0,0,1-2.7-.57,6.12,6.12,0,0,1-3.57-5.57V656.57Z" fill="#3f3d56" data-name="Path 303"/><path transform="translate(-79.34 -172.91)" d="M375.44,656.57v24.49a6.13,6.13,0,0,1-3.5,5.54,6,6,0,0,1-2.5.6l-34.9.74a6,6,0,0,1-2.7-.57,6.12,6.12,0,0,1-3.57-5.57V656.57Z" opacity=".1" data-name="Path 304"/><path transform="translate(-79.34 -172.91)" d="M377.44,656.57v24.49a6.13,6.13,0,0,1-3.5,5.54,6,6,0,0,1-2.5.6l-34.9.74a6,6,0,0,1-2.7-.57,6.12,6.12,0,0,1-3.57-5.57V656.57Z" fill="#3f3d56" data-name="Path 305"/><rect transform="translate(680.92 483.65)" width="47.17" height="31.5" fill="#3f3d56" data-name="Rectangle 137"/><rect transform="translate(680.92 483.65)" width="47.17" height="31.5" opacity=".1" data-name="Rectangle 138"/><rect transform="translate(678.92 483.65)" width="47.17" height="31.5" fill="#3f3d56" data-name="Rectangle 139"/><path d="m298.09 483.65v4.97l-47.17 1.26v-6.23z" opacity=".1" data-name="Path 306"/><path transform="translate(-79.34 -172.91)" d="M460.69,485.27v168.2a4,4,0,0,1-3.85,3.95l-191.65,5.1h-.05a4,4,0,0,1-3.95-3.95V485.27a4,4,0,0,1,3.95-3.95h191.6a4,4,0,0,1,3.95,3.95Z" fill="#65617d" data-name="Path 307"/><path transform="translate(-79.34 -172.91)" d="M265.19,481.32v181.2h-.05a4,4,0,0,1-3.95-3.95V485.27a4,4,0,0,1,3.95-3.95Z" opacity=".1" data-name="Path 308"/><path d="M194.59,319.15h177.5V467.4l-177.5,4Z" fill="#39374d" data-name="Path 309"/><path d="m726.09 483.65v6.41l-47.17-1.26v-5.15z" opacity=".1" data-name="Path 310"/><path transform="translate(-79.34 -172.91)" d="m867.69 485.27v173.3a4 4 0 0 1-4 3.95l-191.69-5.1a4 4 0 0 1-3.85-3.95v-168.2a4 4 0 0 1 3.95-3.95h191.6a4 4 0 0 1 3.99 3.95z" fill="#65617d" data-name="Path 311"/><path transform="translate(-79.34 -172.91)" d="m867.69 485.27v173.3a4 4 0 0 1-4 3.95v-181.2a4 4 0 0 1 4 3.95z" opacity=".1" data-name="Path 312"/><path d="M775.59,319.15H598.09V467.4l177.5,4Z" fill="#39374d" data-name="Path 313"/><path transform="translate(-79.34 -172.91)" d="m663.19 485.27v168.2a4 4 0 0 1-3.85 3.95l-191.65 5.1a4 4 0 0 1-4-3.95v-173.3a4 4 0 0 1 3.95-3.95h191.6a4 4 0 0 1 3.95 3.95z" fill="#65617d" data-name="Path 314"/><path d="M397.09,319.15h177.5V467.4l-177.5,4Z" fill="#4267b2" data-name="Path 315"/><path d="M863.09,533.65v13l-151.92,1.4-1.62.03-57.74.53-1.38.02-17.55.15h-.52l-106.98.99L349.77,551.4h-.15l-44.65.42-.48.01-198.4,1.82v-15l202.51-1.33h.48l40.99-.28h.19l283.08-1.87h.29l.17-.01h.47l4.79-.03h1.46l74.49-.5,4.4-.02.98-.01Z" opacity=".1" data-name="Path 316"/><circle transform="translate(435.93 246.82)" cx="51.33" cy="51.33" r="51.33" fill="#fbbebe" data-name="Ellipse 111"/><path transform="translate(-79.34 -172.91)" d="M617.94,550.07s-99.5,12-90,0c3.44-4.34,4.39-17.2,4.2-31.85-.06-4.45-.22-9.06-.45-13.65-1.1-22-3.75-43.5-3.75-43.5s87-41,77-8.5c-4,13.13-2.69,31.57.35,48.88.89,5.05,1.92,10,3,14.7a344.66,344.66,0,0,0,9.65,33.92Z" fill="#fbbebe" data-name="Path 317"/><path transform="translate(-79.34 -172.91)" d="m585.47 546c11.51-2.13 23.7-6 34.53-1.54 2.85 1.17 5.47 2.88 8.39 3.86s6.12 1.22 9.16 1.91c10.68 2.42 19.34 10.55 24.9 20s8.44 20.14 11.26 30.72l6.9 25.83c6 22.45 12 45.09 13.39 68.3a2437.5 2437.5 0 0 1-250.84 1.43c5.44-10.34 11-21.31 10.54-33s-7.19-23.22-4.76-34.74c1.55-7.34 6.57-13.39 9.64-20.22 8.75-19.52 1.94-45.79 17.32-60.65 6.92-6.68 17-9.21 26.63-8.89 12.28 0.41 24.85 4.24 37 6.11 15.56 2.36 30.26 3.76 45.94 0.88z" fill="#ff6584" data-name="Path 318"/><path transform="translate(-79.34 -172.91)" d="M716.37,657.17l-.1,1.43v.1l-.17,2.3-1.33,18.51-1.61,22.3-.46,6.28-1,13.44v.17l-107,1-175.59,1.9v.84h-.14v-1.12l.45-14.36.86-28.06.74-23.79.07-2.37a10.53,10.53,0,0,1,11.42-10.17c4.72.4,10.85.89,18.18,1.41l3,.22c42.33,2.94,120.56,6.74,199.5,2,1.66-.09,3.33-.19,5-.31,12.24-.77,24.47-1.76,36.58-3a10.53,10.53,0,0,1,11.6,11.23Z" opacity=".1" data-name="Path 319"/><path transform="translate(-79.34 -172.91)" d="M429.08,725.44v-.84l175.62-1.91,107-1h.3v-.17l1-13.44.43-6,1.64-22.61,1.29-17.9v-.44a10.617,10.617,0,0,0-.11-2.47.3.3,0,0,0,0-.1,10.391,10.391,0,0,0-2-4.64,10.54,10.54,0,0,0-9.42-4c-12.11,1.24-24.34,2.23-36.58,3-1.67.12-3.34.22-5,.31-78.94,4.69-157.17.89-199.5-2l-3-.22c-7.33-.52-13.46-1-18.18-1.41a10.54,10.54,0,0,0-11.24,8.53,11,11,0,0,0-.18,1.64l-.68,22.16L429.54,710l-.44,14.36v1.12Z" fill="#3f3d56" data-name="Path 320"/><path transform="translate(-79.34 -172.91)" d="M716.67,664.18l-1.23,15.33-1.83,22.85-.46,5.72-1,12.81-.06.64v.17h0l-.15,1.48.11-1.48h-.29l-107,1-175.65,1.9v-.28l.49-14.36,1-28.06.64-18.65A6.36,6.36,0,0,1,434.3,658a6.25,6.25,0,0,1,3.78-.9c2.1.17,4.68.37,7.69.59,4.89.36,10.92.78,17.94,1.22,13,.82,29.31,1.7,48,2.42,52,2,122.2,2.67,188.88-3.17,3-.26,6.1-.55,9.13-.84a6.26,6.26,0,0,1,3.48.66,5.159,5.159,0,0,1,.86.54,6.14,6.14,0,0,1,2,2.46,3.564,3.564,0,0,1,.25.61A6.279,6.279,0,0,1,716.67,664.18Z" opacity=".1" data-name="Path 321"/><path transform="translate(-79.34 -172.91)" d="M377.44,677.87v3.19a6.13,6.13,0,0,1-3.5,5.54l-40.1.77a6.12,6.12,0,0,1-3.57-5.57v-3Z" opacity=".1" data-name="Path 322"/><path d="m298.59 515.57-52.25 1v-8.67l52.25-1z" fill="#3f3d56" data-name="Path 323"/><path d="m298.59 515.57-52.25 1v-8.67l52.25-1z" opacity=".1" data-name="Path 324"/><path d="m300.59 515.57-52.25 1v-8.67l52.25-1z" fill="#3f3d56" data-name="Path 325"/><path transform="translate(-79.34 -172.91)" d="M758.56,679.87v3.19a6.13,6.13,0,0,0,3.5,5.54l40.1.77a6.12,6.12,0,0,0,3.57-5.57v-3Z" opacity=".1" data-name="Path 326"/><path d="m678.72 517.57 52.25 1v-8.67l-52.25-1z" opacity=".1" data-name="Path 327"/><path d="m676.72 517.57 52.25 1v-8.67l-52.25-1z" fill="#3f3d56" data-name="Path 328"/><path transform="translate(-79.34 -172.91)" d="m534.13 486.79c0.08 7-3.16 13.6-5.91 20.07a163.49 163.49 0 0 0-12.66 74.71c0.73 11 2.58 22 0.73 32.9s-8.43 21.77-19 24.9c17.53 10.45 41.26 9.35 57.76-2.66 8.79-6.4 15.34-15.33 21.75-24.11a97.86 97.86 0 0 1-13.31 44.75 103.43 103.43 0 0 0 73.51-40.82c4.31-5.81 8.06-12.19 9.72-19.23 3.09-13-1.22-26.51-4.51-39.5a266.06 266.06 0 0 1-6.17-33c-0.43-3.56-0.78-7.22 0.1-10.7 1-4.07 3.67-7.51 5.64-11.22 5.6-10.54 5.73-23.3 2.86-34.88s-8.49-22.26-14.06-32.81c-4.46-8.46-9.3-17.31-17.46-22.28-5.1-3.1-11-4.39-16.88-5.64l-25.37-5.43c-5.55-1.19-11.26-2.38-16.87-1.51-9.47 1.48-16.14 8.32-22 15.34-4.59 5.46-15.81 15.71-16.6 22.86-0.72 6.59 5.1 17.63 6.09 24.58 1.3 9 2.22 6 7.3 11.52 3.21 3.42 5.28 7.37 5.34 12.16z" fill="#3f3d56" data-name="Path 329"/></g><path class="cls-1" d="m786.29 648.81a60.362 60.362 0 0 0-1.7775-10.23 61.524 61.524 0 0 0-43.21-43.587 59.737 59.737 0 0 0-10.726-1.9123c-1.8083-0.16561-3.6474-0.25612-5.4999-0.25612-1.8526 0-3.7205 0.0905-5.5442 0.25612a59.937 59.937 0 0 0-10.206 1.7929 61.393 61.393 0 0 0-33.109 22.113 61.202 61.202 0 0 0-12.361 31.869c-0.16562 1.7775-0.25613 3.6011-0.25613 5.4383 0 1.8372 0.0905 3.6762 0.25613 5.4691a60.097 60.097 0 0 0 1.7775 10.23 61.42 61.42 0 0 0 22.05 33.102 61.106 61.106 0 0 0 31.85 12.429c1.8237 0.16562 3.6762 0.24072 5.5442 0.24072s3.6916-0.0751 5.4999-0.24072a59.848 59.848 0 0 0 10.23-1.7929 61.551 61.551 0 0 0 33.123-22.117 61.202 61.202 0 0 0 12.369-31.865c0.16561-1.7929 0.24264-3.6146 0.24264-5.4537 0-1.8391-0.0847-3.6762-0.25035-5.4845zm-23.837-28.934a50.701 50.701 0 0 1 10.977 18.712h-10.977zm-53.135-13.929v11.04h-18.774a50.986 50.986 0 0 1 18.774-11.04zm-21.636 82.79a50.851 50.851 0 0 1-10.977-18.743h10.977zm53.124 13.921v-11.044h18.788a50.84 50.84 0 0 1-18.788 11.044zm34.833-42.909h-45.062v10.728h42.713a50.056 50.056 0 0 1-5.1995 10.907h-37.513v23.473a50.971 50.971 0 0 1-5.4999 0.30234 51.577 51.577 0 0 1-5.5442-0.30234v-45.109h-10.726v42.742a51.1 51.1 0 0 1-10.894-5.213v-37.513h-23.398a50.187 50.187 0 0 1-0.30042-5.4691 49.621 49.621 0 0 1 0.30042-5.4383h45.018v-10.728h-42.682a50.768 50.768 0 0 1 5.1995-10.907h37.483v-23.473a51.577 51.577 0 0 1 5.5442-0.30234 50.971 50.971 0 0 1 5.4999 0.30234v45.109h10.726v-42.751a50.599 50.599 0 0 1 10.923 5.2284v37.477h23.398a50.909 50.909 0 0 1 0.0154 10.938z" stroke-width=".19257"/><path class="cls-1" d="m1128.1 595.5c-23.428 0-42.419 18.994-42.419 42.419a42.413 42.413 0 0 0 26.669 39.393v-14.046h31.502v14.046a42.413 42.413 0 0 0 26.667-39.393c0-23.428-18.99-42.419-42.419-42.419zm0 60.653a18.242 18.242 0 1 1 18.242-18.242 18.242 18.242 0 0 1-18.244 18.242zm-15.75 21.159v35.771h31.502v-35.771a42.501 42.501 0 0 1-31.5 0z" fill="url(#linearGradient354)" stroke-width=".18806"/></g></svg>
